# xmcd
#
# Track frame offsets:
# 150
# 72475
# 111035
# 164222
# 243290
#
# Disc length: 3856 seconds
#
#
# Revision: 1
# Processed by: cddbd v1.5.2PL0 Copyright (c) Steve Scherf et al.
# Submitted via: FreeRIP 2.944 
#
DISCID=440f0e05
DTITLE=Royal Entertainment - Lights - CD 1
DYEAR=1995
DGENRE=New Age
TTITLE0=Spanish sun
TTITLE1=Arabesque
TTITLE2=Lighthouse
TTITLE3=Transcendence
TTITLE4=Mirror lake
EXTD=Weltbild Verlag GmbH\nYEAR: 1995
EXTT0=
EXTT1=
EXTT2=
EXTT3=
EXTT4=
PLAYORDER=
